<svg xmlns="http://www.w3.org/2000/svg" viewBox="0 0 24 16"><path d="M5 6.5l-4 2 14 7 4-2z" opacity=".3"/><path fill="#E5E5E5" d="M5.8.7l-1-.5c-.1-.1-.3-.1-.4 0L.9 2c-.6.2-.9.8-.9 1.4V8l1 .5 4.7-2.9.1-4.9z"/><path fill="#E5E5E5" d="M1 8.5V3.9c0-.6.3-1.2.9-1.4L5.4.7c.3-.1.6.1.6.4V6L1 8.5z"/><path d="M0 8l1 .5V3.9l-1-.5z" opacity=".06"/><path d="M1 8.5V3.9c0-.6.3-1.2.9-1.4L5.4.7c.3-.1.6.1.6.4V6L1 8.5z" opacity=".39"/><path fill="#825012" d="M6 2.5L1 5v1l14 7v-1l5-2.5z"/><path d="M15 12L1 5v1l14 7z" opacity=".06"/><path d="M16.2 11.4l-14-7-.2.1 14 7zM17.2 10.9l-14-7L3 4l14 7zM18.2 10.4l-14-7-.2.1 14 7zM19.2 9.9l-14-7L5 3l14 7z" opacity=".3"/><path fill="#E5E5E5" d="M20.8 8.2l-1-.5c-.1-.1-.3-.1-.4 0l-3.5 1.8c-.5.3-.9.8-.9 1.4v4.6l1 .5 4.7-2.9.1-4.9z"/><path fill="#E5E5E5" d="M16 16v-4.6c0-.6.3-1.2.9-1.4l3.5-1.8c.3-.1.6.1.6.4v4.9L16 16z"/><path d="M15 15.5l1 .5v-4.6l-1-.5z" opacity=".06"/><path d="M16 16v-4.6c0-.6.3-1.2.9-1.4l3.5-1.8c.3-.1.6.1.6.4v4.9L16 16z" opacity=".39"/></svg>