<svg xmlns="http://www.w3.org/2000/svg" data-name="Layer 1" viewBox="0 0 512 512"><g data-name="&lt;Group&gt;"><g data-name="&lt;Group&gt;"><path fill="#ed664c" d="M500,134.55v70.16a14.425,14.425,0,0,1-14.42,14.42H476.4v-99h9.18A14.425,14.425,0,0,1,500,134.55Z" data-name="&lt;Group&gt;"/><path fill="#fdc75b" d="M476.4,219.13v9.18a14.425,14.425,0,0,1-14.42,14.42H446.56V98.89h15.42a14.425,14.425,0,0,1,14.42,14.42V219.13Z" data-name="&lt;Group&gt;"/><polygon fill="#ed664c" points="446.56 156.4 446.56 185.22 446.39 185.22 418 185.22 388 185.22 124 185.22 94 185.22 93.25 185.22 65.44 185.22 65.44 156.4 94 156.4 124 156.4 388 156.4 418 156.4 445.95 156.4 446.56 156.4" data-name="&lt;Group&gt;"/><rect width="30" height="291.59" x="388" y="185.22" fill="#fdc75b" data-name="&lt;Group&gt;"/><rect width="30" height="121.21" x="388" y="35.19" fill="#fdc75b" data-name="&lt;Group&gt;"/><polygon fill="#ed664c" points="314.03 338.73 197.97 338.73 164.78 338.73 153.98 338.73 153.98 297.06 358.02 297.06 358.02 338.73 347.22 338.73 314.03 338.73" data-name="&lt;Group&gt;"/><rect width="33.19" height="138.08" x="314.03" y="338.73" fill="#fdc75b" data-name="&lt;Group&gt;"/><rect width="33.19" height="138.08" x="164.78" y="338.73" fill="#fdc75b" data-name="&lt;Group&gt;"/><polygon fill="#fdc75b" points="124 185.22 124 476.81 94 476.81 94 185.25 94 185.22 124 185.22" data-name="&lt;Group&gt;"/><rect width="30" height="121.21" x="94" y="35.19" fill="#fdc75b" data-name="&lt;Group&gt;"/><path fill="#fdc75b" d="M65.44,185.22v57.51H50.02A14.425,14.425,0,0,1,35.6,228.31v-115A14.425,14.425,0,0,1,50.02,98.89H65.44v86.33Z" data-name="&lt;Group&gt;"/><path fill="#ed664c" d="M35.6,120.13v99H26.42A14.425,14.425,0,0,1,12,204.71V134.55a14.425,14.425,0,0,1,14.42-14.42Z" data-name="&lt;Group&gt;"/></g><g data-name="&lt;Group&gt;"><path d="M314.03,487h33.19A9.979,9.979,0,0,0,357,476.81V349h1.02A10.217,10.217,0,0,0,368,338.73V297.06A10.034,10.034,0,0,0,358.02,287H153.98A10.034,10.034,0,0,0,144,297.06v41.67A10.217,10.217,0,0,0,153.98,349H155V476.81A9.979,9.979,0,0,0,164.78,487h33.19A10.189,10.189,0,0,0,208,476.81V349h96V476.81A10.189,10.189,0,0,0,314.03,487ZM337,467H324V349h13ZM164,307H348v22H164Zm24,160H175V349h13Z" data-name="&lt;Compound Path&gt;"/><path d="M486.188,110.2A24.4,24.4,0,0,0,461.98,89H446.56A9.54,9.54,0,0,0,437,98.89V146h-9V35.19A10.164,10.164,0,0,0,418,25H388a10.164,10.164,0,0,0-10,10.19V146H134V35.19A10.164,10.164,0,0,0,124,25H94A10.164,10.164,0,0,0,84,35.19V146H75V98.89A9.54,9.54,0,0,0,65.44,89H50.02a24.4,24.4,0,0,0-24.208,21.2A24.4,24.4,0,0,0,2,134.55v70.16a24.566,24.566,0,0,0,23.62,24.535A24.561,24.561,0,0,0,50.02,253H65.44c5.523,0,9.56-4.747,9.56-10.27V195h9V476.81A10.164,10.164,0,0,0,94,487h30a10.164,10.164,0,0,0,10-10.19V195H378V476.81A10.164,10.164,0,0,0,388,487h30a10.164,10.164,0,0,0,10-10.19V195h9v47.73c0,5.523,4.037,10.27,9.56,10.27h15.42a24.561,24.561,0,0,0,24.4-23.755A24.566,24.566,0,0,0,510,204.71V134.55A24.4,24.4,0,0,0,486.188,110.2ZM22,204.71V134.55c0-2.157,2-3.951,4-4.337v78.834C24,208.661,22,206.866,22,204.71ZM55,233H50.02c-2.437,0-4.02-2.253-4.02-4.69v-115A4.007,4.007,0,0,1,50.02,109H55ZM398,45h10V146H398ZM104,45h10V146H104Zm10,422H104V195h10Zm294,0H398V195h10ZM75,175v-9H437v9Zm391,53.31c0,2.437-1.583,4.69-4.02,4.69H457V109h4.98a4.007,4.007,0,0,1,4.02,4.31Zm24-23.6c0,2.156-2,3.951-4,4.337V130.213c2,.386,4,2.18,4,4.337Z" data-name="&lt;Compound Path&gt;"/></g></g></svg>