<svg xmlns="http://www.w3.org/2000/svg" fill-rule="evenodd" stroke-linejoin="round" stroke-miterlimit="2" clip-rule="evenodd" viewBox="0 0 64 64"><rect width="64" height="64" fill="none"/><path d="M50.788,44.004c0.276,0 0.5,0.224 0.5,0.5c0,0.276 -0.224,0.5 -0.5,0.5l-2.999,0c-0.276,0 -0.5,-0.224 -0.5,-0.5c0,-0.276 0.224,-0.5 0.5,-0.5l2.999,0Z"/><path d="M46.015 44.005c.408.031.628.523.344.835-.043.048-.095.087-.153.115-.068.032-.141.047-.217.049l-40.989 0 0 3.09 53.986 0 0-3.09-6.398 0c-.076-.002-.149-.017-.217-.049-.058-.028-.11-.067-.153-.115-.284-.312-.064-.804.344-.835l.026-.001 6.898 0c.276 0 .5.224.5.5l0 4.09c0 .276-.224.5-.5.5l-54.986 0c-.276 0-.5-.224-.5-.5l0-4.09c0-.276.224-.5.5-.5l41.489 0 .026.001zM54.737 29.508l-10.747 0c-.276 0-.5-.224-.5-.5 0-.261-.174-.495-.442-.729-.362-.318-.894-.608-1.559-.873-2.142-.852-5.6-1.397-9.496-1.397-4.789 0-8.915.812-10.72 2.015-.23.153-.54.091-.693-.138-.153-.23-.091-.541.138-.694 1.901-1.267 6.233-2.183 11.275-2.183 4.743 0 8.858.806 10.902 1.956.814.458 1.318.994 1.508 1.543l10.834 0c.276 0 .5.224.5.5l0 10.997c0 .276-.224.5-.5.5l-46.488 0c-.276 0-.5-.224-.5-.5l0-10.997c0-.276.224-.5.5-.5l11.247 0 .026.001c.408.031.627.523.344.835-.043.047-.096.087-.153.114-.069.033-.142.048-.217.05l-10.747 0 0 9.997 45.488 0 0-9.997z"/><path d="M21.54 30.503c.133-.54.571-1.069 1.313-1.52 1.714-1.041 5.163-1.775 9.14-1.775 3.977 0 7.426.734 9.14 1.775.741.451 1.18.98 1.313 1.52l10.541 0c.277 0 .5.223.5.499l0 7.009c0 .276-.223.499-.5.499l-25.793 0c-.276 0-.5-.224-.5-.499 0-.276.224-.5.5-.5l25.294 0 0-6.009-10.508 0c-.145 0-.283-.063-.378-.172-.095-.11-.138-.255-.117-.399.004-.024.005-.049.005-.074 0-.225-.139-.429-.353-.631-.296-.28-.731-.535-1.274-.769-1.775-.762-4.641-1.249-7.87-1.249-3.229 0-6.095.487-7.87 1.249-.543.234-.978.489-1.274.769-.214.202-.354.406-.354.631 0 .025.002.05.006.074.02.144-.022.289-.117.399-.095.109-.233.172-.378.172l-10.508 0 0 6.009 13.497 0c.276 0 .5.224.5.5 0 .275-.224.499-.5.499l-13.997 0c-.276 0-.5-.223-.5-.499l0-7.009c0-.276.224-.499.5-.499l10.542 0zM8.749 48.094c.276 0 .5.224.5.5l0 8.998c0 .276-.224.499-.5.499l-2.25 0c-.276 0-.5-.223-.5-.499l0-1.591c0-.276.224-.5.5-.5.276 0 .5.224.5.5l0 1.091 1.25 0 0-7.998-1.25 0 0 4.908c0 .275-.224.499-.5.499-.276 0-.5-.224-.5-.499l0-5.408c0-.276.224-.5.5-.5l2.25 0zM6 26.483c.014-.264.232-.474.499-.474l2.25 0c.276 0 .5.224.5.5l0 11.502c0 .276-.224.499-.5.499l-2.25 0c-.276 0-.5-.223-.5-.499l0-11.502.001-.026zm.999.525l0 10.503 1.25 0 0-10.503-1.25 0zM57.486 48.094c.276 0 .5.224.5.5l0 8.998c0 .276-.224.499-.5.499l-2.249 0c-.276 0-.5-.223-.5-.499l0-8.998c0-.276.224-.5.5-.5l2.249 0zm-1.749 1l0 7.998 1.249 0 0-7.998-1.249 0zM57.486 26.009c.276 0 .5.224.5.5l0 11.502c0 .276-.224.499-.5.499l-2.249 0c-.276 0-.5-.223-.5-.499l0-11.502c0-.276.224-.5.5-.5l2.249 0zm-1.749.999l0 10.503 1.249 0 0-10.503-1.249 0zM8.749 39.505c.276 0 .5.224.5.5l0 4.499c0 .276-.224.5-.5.5l-2.25 0c-.276 0-.5-.224-.5-.5l0-4.499c0-.276.224-.5.5-.5l2.25 0zm-1.75 1l0 3.499 1.25 0 0-3.499-1.25 0zM57.486 39.505c.276 0 .5.224.5.5l0 4.499c0 .276-.224.5-.5.5l-2.249 0c-.276 0-.5-.224-.5-.5l0-4.499c0-.276.224-.5.5-.5l2.249 0zm-1.749 1l0 3.499 1.249 0 0-3.499-1.249 0z"/><path d="M10.748 57.092c.276 0 .5.223.5.5l0 1.908c0 .276-.224.5-.5.5l-6.248 0c-.276 0-.5-.224-.5-.5l0-1.908c0-.277.224-.5.5-.5l6.248 0zm-5.748.999l0 .909 5.248 0 0-.909-5.248 0zM59.486 57.092c.276 0 .5.223.5.5l0 1.908c0 .276-.224.5-.5.5l-6.249 0c-.276 0-.499-.224-.499-.5l0-1.908c0-.277.223-.5.499-.5l6.249 0zm-5.749.999l0 .909 5.249 0 0-.909-5.249 0zM8.749 37.506c.276 0 .5.224.5.5l0 1.999c0 .276-.224.5-.5.5l-4.249 0c-.276 0-.5-.224-.5-.5l0-1.999c0-.276.224-.5.5-.5l4.249 0zm-3.749 1l0 .999 3.249 0 0-.999-3.249 0zM59.486 37.506c.276 0 .5.224.5.5l0 1.999c0 .276-.224.5-.5.5l-4.249 0c-.276 0-.5-.224-.5-.5l0-1.999c0-.276.224-.5.5-.5l4.249 0zm-3.749 1l0 .999 3.249 0 0-.999-3.249 0zM6.092 5.596c-.102.467-.196 1.074-.203 1.732-.009.932.156 1.972.765 2.843.657.938 1.829 1.658 3.799 1.873.274.029.472.276.442.551-.03.274-.277.472-.551.442-2.353-.256-3.724-1.172-4.509-2.293-.736-1.051-.957-2.301-.946-3.426.017-1.635.521-2.991.521-2.991.067-.184.236-.311.431-.325.195-.015.381.086.475.258 0 0 .966 1.703 3.902 2.87 3.5 1.392 2.723 5.557 2.723 5.557-.052.271-.314.448-.585.396-.271-.052-.449-.314-.396-.585 0 0 .669-3.333-2.112-4.439-1.94-.772-3.113-1.765-3.756-2.463z"/><path d="M13.401,9.945c-0.057,-0.198 -0.087,-0.406 -0.087,-0.622c0,-1.241 1.008,-2.249 2.249,-2.249c1.242,0 2.25,1.008 2.25,2.249c0,0.892 -0.52,1.663 -1.272,2.026c-0.343,0.319 -0.806,0.846 -1.185,1.621c-0.502,1.025 -1.514,2.25 -3.101,2.732c-1.043,0.317 -2.342,0.318 -3.916,-0.3c-3.914,-1.538 -4.312,-2.927 -4.312,-2.927c-0.051,-0.15 -0.029,-0.315 0.061,-0.446c0.09,-0.131 0.236,-0.211 0.395,-0.216c0,0 1.492,-0.052 3.383,-0.327c0.273,-0.039 0.527,0.15 0.566,0.423c0.04,0.273 -0.15,0.527 -0.423,0.567c-0.956,0.138 -1.813,0.222 -2.439,0.271c0.539,0.447 1.501,1.083 3.135,1.724c1.311,0.515 2.391,0.538 3.26,0.274c1.281,-0.388 2.088,-1.387 2.493,-2.215c0.473,-0.965 1.058,-1.604 1.468,-1.973c0.04,-0.036 0.085,-0.065 0.135,-0.087c0.442,-0.192 0.752,-0.634 0.752,-1.147c0,-0.689 -0.56,-1.249 -1.25,-1.249c-0.69,0 -1.25,0.56 -1.25,1.249c0,0.218 0.056,0.423 0.154,0.601c0.129,0.234 0.05,0.529 -0.179,0.668c-0.473,0.286 -1.011,0.538 -1.588,0.757c-0.258,0.098 -0.547,-0.032 -0.645,-0.29c-0.098,-0.257 0.032,-0.546 0.29,-0.644c0.373,-0.142 0.728,-0.298 1.056,-0.47Z"/><path d="M18.299 9.503l-1.999-1.19c-.237-.142-.315-.449-.174-.686.142-.237.449-.315.686-.173l2.84 1.691c.161.097.255.275.243.462-.012.188-.129.353-.301.427l-3.083 1.33c-.254.109-.548-.008-.657-.262-.11-.253.007-.547.261-.657l2.184-.942zM57.908 5.596c.102.467.196 1.074.203 1.732.009.932-.156 1.972-.765 2.843-.657.938-1.829 1.658-3.799 1.873-.274.029-.472.276-.442.551.03.274.277.472.551.442 2.353-.256 3.724-1.172 4.509-2.293.736-1.051.957-2.301.946-3.426-.017-1.635-.521-2.991-.521-2.991-.067-.184-.236-.311-.431-.325-.195-.015-.381.086-.475.258 0 0-.966 1.703-3.902 2.87-3.5 1.392-2.723 5.557-2.723 5.557.052.271.314.448.585.396.271-.052.449-.314.396-.585 0 0-.669-3.333 2.112-4.439 1.94-.772 3.113-1.765 3.756-2.463z"/><path d="M50.599,9.945c0.057,-0.198 0.087,-0.406 0.087,-0.622c0,-1.241 -1.008,-2.249 -2.249,-2.249c-1.242,0 -2.25,1.008 -2.25,2.249c0,0.892 0.52,1.663 1.272,2.026c0.343,0.319 0.806,0.846 1.185,1.621c0.502,1.025 1.514,2.25 3.101,2.732c1.043,0.317 2.342,0.318 3.916,-0.3c3.914,-1.538 4.312,-2.927 4.312,-2.927c0.051,-0.15 0.029,-0.315 -0.061,-0.446c-0.09,-0.131 -0.236,-0.211 -0.395,-0.216c0,0 -1.492,-0.052 -3.383,-0.327c-0.273,-0.039 -0.527,0.15 -0.566,0.423c-0.04,0.273 0.15,0.527 0.423,0.567c0.956,0.138 1.813,0.222 2.439,0.271c-0.539,0.447 -1.501,1.083 -3.135,1.724c-1.311,0.515 -2.391,0.538 -3.26,0.274c-1.281,-0.388 -2.088,-1.387 -2.493,-2.215c-0.473,-0.965 -1.058,-1.604 -1.468,-1.973c-0.04,-0.036 -0.085,-0.065 -0.135,-0.087c-0.442,-0.192 -0.752,-0.634 -0.752,-1.147c0,-0.689 0.56,-1.249 1.25,-1.249c0.69,0 1.25,0.56 1.25,1.249c0,0.218 -0.056,0.423 -0.154,0.601c-0.129,0.234 -0.05,0.529 0.179,0.668c0.473,0.286 1.011,0.538 1.588,0.757c0.258,0.098 0.547,-0.032 0.645,-0.29c0.098,-0.257 -0.032,-0.546 -0.29,-0.644c-0.373,-0.142 -0.728,-0.298 -1.056,-0.47Z"/><path d="M45.701,9.503l1.999,-1.19c0.237,-0.142 0.315,-0.449 0.174,-0.686c-0.142,-0.237 -0.449,-0.315 -0.686,-0.173l-2.84,1.691c-0.161,0.097 -0.255,0.275 -0.243,0.462c0.012,0.188 0.129,0.353 0.301,0.427l3.083,1.33c0.254,0.109 0.548,-0.008 0.657,-0.262c0.11,-0.253 -0.007,-0.547 -0.261,-0.657l-2.184,-0.942Z"/></svg>