<svg xmlns="http://www.w3.org/2000/svg" enable-background="new 0 0 50 50" viewBox="0 0 50 50"><polygon fill="#4F4D4D" points="33.148 31.37 33.179 42.274 34.348 42.959 34.348 32.068"/><polygon fill="#3D3D3D" points="34.348 32.068 34.348 42.959 45.179 36.672 45.179 25.78"/><polygon fill="#686868" points="33.148 31.37 34.348 32.068 45.179 25.78 43.979 25.083"/><polygon fill="#4F4D4D" points="4.825 14.647 4.856 25.55 6.025 26.236 6.025 15.344"/><polygon fill="#3D3D3D" points="6.025 15.344 6.025 26.236 16.856 19.948 16.856 9.057"/><polygon fill="#686868" points="4.825 14.647 6.025 15.344 16.856 9.057 15.656 8.359"/><g><polygon fill="#CC8B4F" points="47.454 26.314 47.45 27.871 45.038 29.273 45.042 27.715"/><polygon fill="#D89C60" points="45.042 27.715 45.038 29.273 11.656 10 11.66 8.443"/><polygon fill="#E5AE70" points="47.454 26.314 45.042 27.715 11.66 8.443 14.072 7.041"/></g><g><polygon fill="#CC8B4F" points="42.899 28.981 42.895 30.538 40.483 31.94 40.487 30.382"/><polygon fill="#D89C60" points="40.487 30.382 40.483 31.94 7.101 12.667 7.105 11.11"/><polygon fill="#E5AE70" points="42.899 28.981 40.487 30.382 7.105 11.11 9.517 9.708"/></g><g><polygon fill="#CC8B4F" points="38.344 31.648 38.34 33.205 35.928 34.607 35.932 33.049"/><polygon fill="#D89C60" points="35.932 33.049 35.928 34.607 2.546 15.334 2.55 13.777"/><polygon fill="#E5AE70" points="38.344 31.648 35.932 33.049 2.55 13.777 4.962 12.375"/></g></svg>