<svg xmlns="http://www.w3.org/2000/svg" enable-background="new 0 0 64 64" viewBox="0 0 64 64"><rect width="6.13" height="14.86" x="4.69" y="41.81" fill="#efc65e"/><rect width="6.13" height="14.86" x="53.18" y="41.81" fill="#efc65e"/><rect width="4.46" height="26.29" x="12.12" y="14.87" fill="#eab75c"/><rect width="4.46" height="26.29" x="47.42" y="14.87" fill="#eab75c"/><rect width="64" height="4.09" y="39.77" fill="#e2b354"/><rect width="54.15" height="5.62" x="4.92" y="18.68" fill="#efc65e"/><path fill="#e2b354" d="M15.25 21.49c0 .49-.4.9-.9.9s-.9-.4-.9-.9c0-.49.4-.9.9-.9S15.25 21 15.25 21.49zM50.54 21.49c0 .49-.4.9-.9.9-.49 0-.9-.4-.9-.9 0-.49.4-.9.9-.9C50.14 20.59 50.54 21 50.54 21.49z"/><rect width="54.15" height="5.62" x="4.92" y="25.54" fill="#efc65e"/><path fill="#e2b354" d="M15.25 28.34c0 .49-.4.9-.9.9s-.9-.4-.9-.9c0-.49.4-.9.9-.9S15.25 27.85 15.25 28.34zM50.54 28.34c0 .49-.4.9-.9.9-.49 0-.9-.4-.9-.9 0-.49.4-.9.9-.9C50.14 27.45 50.54 27.85 50.54 28.34z"/><rect width="54.15" height="5.62" x="4.92" y="32.39" fill="#efc65e"/><path fill="#e2b354" d="M15.25 35.2c0 .5-.4.9-.9.9s-.9-.4-.9-.9c0-.49.4-.9.9-.9S15.25 34.7 15.25 35.2zM50.54 35.2c0 .5-.4.9-.9.9-.49 0-.9-.4-.9-.9 0-.49.4-.9.9-.9C50.14 34.3 50.54 34.7 50.54 35.2z"/><path fill="#a772c0" d="M44.64,20.98l-3.49,2.75l-2.09-2.79V35.8H24.94V20.94l-2.09,2.79l-3.49-2.75l4.18-5.37
		c0.57-0.72,1.44-1.14,2.36-1.14H38.1c0.92,0,1.79,0.42,2.36,1.14L44.64,20.98z"/><polygon fill="#f1caaa" points="30.08 59.22 25.42 60.18 24.67 57.02 29.33 56.05"/><path fill="#5a96f0" d="M24.7,61.78c-0.16-1.79,1.17-3.9,2.96-4.06c1.79-0.16,3.37,1.15,3.54,2.94L24.7,61.78z"/><polyline fill="#41413f" points="31.2 60.66 31.37 61.57 24.8 62.67 24.7 61.78"/><polygon fill="#41604a" points="27.32 42.12 29.87 39.66 25.37 38.79"/><path fill="#496f54" d="M30.17,56.24l-6.03,1.25l-2.15-15.43c-0.22-1.57,0.86-3.03,2.43-3.28l0,0c1.59-0.25,3.08,0.83,3.33,2.42
				L30.17,56.24z"/><polygon fill="#f1caaa" points="33.92 59.22 38.58 60.18 39.33 57.02 34.67 56.05"/><path fill="#5a96f0" d="M39.3,61.78c0.16-1.79-1.17-3.9-2.96-4.06c-1.79-0.16-3.37,1.15-3.54,2.94L39.3,61.78z"/><polyline fill="#41413f" points="32.8 60.66 32.63 61.57 39.2 62.67 39.3 61.78"/><polygon fill="#41604a" points="36.68 42.12 34.13 39.66 38.63 38.79"/><path fill="#496f54" d="M33.83,56.24l6.03,1.25l2.15-15.43c0.22-1.57-0.86-3.03-2.43-3.28l0,0c-1.59-0.25-3.08,0.83-3.33,2.42
				L33.83,56.24z"/><path fill="#e5bba8" d="M32,17.16L32,17.16c-1.36,0-2.46-1.1-2.46-2.46v-1.6h4.92v1.6C34.46,16.06,33.36,17.16,32,17.16z"/><ellipse cx="32" cy="7.9" fill="#f4c5a7" rx="5.34" ry="6.57"/><g><rect width="13.21" height="19.96" x="18.79" y="19.83" fill="#a9a9a9"/><rect width="13.21" height="19.96" x="32" y="19.83" fill="#767676"/></g><g><path fill="#f4c5a7" d="M18.81 26.19c1.41-.16 2.31.05 2.49 2.04.22 3.05-1.19 3.29-2.5 3.04C17.88 29.58 18.27 27.5 18.81 26.19zM45.19 26.19c-1.41-.16-2.31.05-2.49 2.04-.22 3.05 1.19 3.29 2.5 3.04C46.12 29.58 45.73 27.5 45.19 26.19z"/></g></svg>